# AST/ASF file generated using VICON BodyLanguage
# -----------------------------------------------
:version 1.10
:name VICON
:units
  mass 1.0
  length 0.45
  angle deg
:documentation
   .ast/.asf automatically generated from VICON data using
   VICON BodyBuilder and BodyLanguage model FoxedUp or BRILLIANT.MOD
:root
   order TX TY TZ RX RY RZ
   axis XYZ
   position 0 0 0  
   orientation 0 0 0 
:bonedata
  begin
     id 1 
     name lhipjoint
     direction 0.440178 -0.822639 0.359871 
     length 2.53113 
     axis 0 0 0  XYZ
  end
  begin
     id 2 
     name lfemur
     direction 0.34202 -0.939693 0  
     length 7.88132  
     axis 0 0 20  XYZ
    dof rx ry rz
    limits (-160.0 20.0)
           (-70.0 70.0)
           (-60.0 70.0)
  end
  begin
     id 3 
     name ltibia
     direction 0.34202 -0.939693 0   
     length 8.43783   
     axis 0 0 20   XYZ
    dof rx
    limits (-10.0 170.0)
  end
  begin
     id 4 
     name lfoot
     direction 0.0886351 -0.243523 0.965837   
     length 2.63414   
     axis -90 7.62852e-016 20   XYZ
    dof rx rz
    limits (-45.0 90.0)
           (-70.0 20.0)
  end
  begin
     id 5 
     name ltoes
     direction 1.53703e-011 -4.21717e-011 1   
     length 1.31427   
     axis -90 7.62852e-016 20   XYZ
    dof rx
    limits (-90.0 20.0)
  end
  begin
     id 6 
     name rhipjoint
     direction -0.399779 -0.839773 0.367367   
     length 2.47948  
     axis 0 0 0  XYZ 
  end
  begin
     id 7 
     name rfemur
     direction -0.34202 -0.939693 0   
     length 7.74806   
     axis 0 0 -20   XYZ
    dof rx ry rz
    limits (-160.0 20.0)
           (-70.0 70.0)
           (-70.0 60.0)
  end
  begin
     id 8 
     name rtibia
     direction -0.34202 -0.939693 0   
     length 8.74432   
     axis 0 0 -20   XYZ
    dof rx
    limits (-10.0 170.0)
 end
 begin
     id 9 
     name rfoot
     direction -0.108514 -0.298139 0.948334   
     length 2.66102  
     axis -90 -7.62852e-016 -20   XYZ
    dof rx rz
    limits (-45.0 90.0)
           (-20.0 70.0)
  end
  begin
     id 10 
     name rtoes
     direction -1.53392e-011 -4.22077e-011 1   
     length 1.31983   
     axis -90 -7.62852e-016 -20   XYZ
    dof rx
    limits (-90.0 20.0)
  end
  begin
     id 11 
     name lowerback
     direction 0.0113257 0.999866 0.0118602   
     length 2.58694   
     axis 0 0 0   XYZ
    dof rx ry rz
    limits (-20.0 45.0)
           (-30.0 30.0)
           (-30.0 30.0)
  end
  begin
     id 12 
     name upperback
     direction -0.0164747 0.995193 -0.0965375   
     length 2.52368   
     axis 0 0 0   XYZ
    dof rx ry rz
    limits (-20.0 45.0)
           (-30.0 30.0)
           (-30.0 30.0)
  end
  begin
     id 13 
     name thorax
     direction -0.0194301 0.99433 -0.104552   
     length 2.56099   
     axis 0 0 0   XYZ
    dof rx ry rz
    limits (-20.0 45.0)
           (-30.0 30.0)
           (-30.0 30.0)
  end
  begin
     id 14 
     name lowerneck
     direction 0.0148543 0.995587 -0.092657   
     length 1.71582   
     axis 0 0 0   XYZ
    dof rx ry rz
    limits (-20.0 45.0)
           (-30.0 30.0)
           (-30.0 30.0)
  end
  begin
     id 15 
     name upperneck
     direction -0.0135467 0.993656 -0.111639   
     length 1.68937   
     axis 0 0 0   XYZ
    dof rx ry rz
    limits (-20.0 45.0)
           (-30.0 30.0)
           (-30.0 30.0)
  end
  begin
     id 16
     name head
     direction -0.00615349 0.999547 -0.029448  
     length 1.7462  
     axis 0 0 0   XYZ
    dof rx ry rz
    limits (-20.0 45.0)
           (-30.0 30.0)
           (-30.0 30.0)
  end
  begin
     id 17 
     name lclavicle
     direction 0.988267 0.149885 0.0293713  
     length 4.47222  
     axis 0 0 0   XYZ
    dof ry rz
    limits (-20.0 10.0)
           (0.0 20.0)
  end
  begin
     id 18 
     name lhumerus
     direction 1 -4.48986e-011 -1.14833e-027   
     length 5.37148   
     axis 180 -30 -90   XYZ
    dof rx ry rz
    limits (-60.0 90.0)
           (-90.0 90.0)
           (-90.0 90.0)
  end
  begin
     id 19
     name lradius
     direction 0.999998 0.00170963 -0.000987055   
     length 3.94212   
     axis 180 -30 -90   XYZ
    dof rx
    limits (-10.0 170.0)
  end
  begin
     id 20
     name lwrist
     direction 0.999998 7.53149e-005 -0.00194706   
     length 1.97106   
     axis 4.65056e-015 90 90   XYZ
    dof ry
    limits (-180.0 0.0)
 end
  begin
     id 21 
     name lhand
     direction 1 -4.48973e-011 -1.31746e-026   
     length 1.17917   
     axis 8.4065e-015 90 90   XYZ
    dof rx rz
    limits (-90.0 90.0)
           (-45.0 45.0)
  end
  begin
     id 22 
     name lfingers
     direction 1 -4.49107e-011 -2.63492e-026   
     length 0.950679   
     axis 1.6813e-014 90 90   XYZ
    dof rx
    limits (0.0 90.0)
  end
  begin
     id 23
     name lthumb
     direction 0.707107 -6.35048e-011 0.707107   
     length 1.36499   
     axis -90 45 2.85299e-015   XYZ
    dof rx rz
    limits (-45.0 45.0)
           (-45.0 45.0)
  end
  begin
     id 24 
     name rclavicle
     direction -0.996699 0.0642895 -0.0495725   
     length 4.62611  
     axis 0 0 0   XYZ 
    dof ry rz
    limits (-10.0 20.0)
           (-20.0 0.0)
  end
  begin
     id 25 
     name rhumerus
     direction -1 -4.48919e-011 -2.41059e-027  
     length 5.4981   
     axis 180 30 90   XYZ
    dof rx ry rz
    limits (-90.0 60.0)
           (-90.0 90.0)
           (-90.0 90.0)
  end
  begin
     id 26 
     name rradius
     direction -0.999999 0.00118101 -0.000681858   
     length 3.48381   
     axis 180 30 90   XYZ
    dof rx
    limits (-10.0 170.0)
  end
  begin
     id 27 
     name rwrist
     direction -0.999999 0.000321823 -0.00132288   
     length 1.7419   
     axis 4.65056e-015 -90 -90   XYZ
    dof ry
    limits (-180.0 0.0)
  end
  begin
     id 28
     name rhand
     direction -1 -4.49022e-011 -1.31746e-026   
     length 1.34932   
     axis 8.4065e-015 -90 -90   XYZ
    dof rx rz
    limits (-90.0 90.0)
           (-45.0 45.0)
  end
  begin
     id 29
     name rfingers
     direction -1 -4.49178e-011 -2.63492e-026   
     length 1.08785   
     axis 1.6813e-014 -90 -90   XYZ
    dof rx
    limits (0.0 90.0)
  end
  begin
     id 30
     name rthumb
     direction -0.707107 -6.34713e-011 0.707107   
     length 1.56195   
     axis -90 -45 -2.85299e-015   XYZ
    dof rx rz
    limits (-45.0 45.0)
           (-45.0 45.0)
  end
:hierarchy
  begin
    root lhipjoint rhipjoint lowerback
    lhipjoint lfemur
    lfemur ltibia
    ltibia lfoot
    lfoot ltoes
    rhipjoint rfemur
    rfemur rtibia
    rtibia rfoot
    rfoot rtoes
    lowerback upperback
    upperback thorax
    thorax lowerneck lclavicle rclavicle
    lowerneck upperneck
    upperneck head
    lclavicle lhumerus
    lhumerus lradius
    lradius lwrist
    lwrist lhand lthumb
    lhand lfingers
    rclavicle rhumerus
    rhumerus rradius
    rradius rwrist
    rwrist rhand rthumb
    rhand rfingers
  end

#!OML:ASF X:\für Bonn\!DataBase\2005_08_10_Bjorn_Final\c3d\bjorn.ASF
:FULLY-SPECIFIED
:DEGREES
1
root 0.309978 19.1131 3.21908 -178.288 -5.60081 179.523
lowerback -6.78698 3.34456 2.33785
upperback 4.9981 4.08217 0.499709
thorax 9.23963 2.06529 -0.182326
lowerneck -8.42962 -1.32029 -0.146572
upperneck 27.7118 -2.6887 -4.52758
head 10.1271 -2.49005 -1.99991
rclavicle 9.19379e-015 -7.95139e-015
rhumerus -28.1816 -52.2064 -64.4313
rradius 11.2488
rwrist 51.5767
rhand -5.16126 12.7512
rfingers 7.12502
rthumb 20.6385 -16.1716
lclavicle 9.19379e-015 -7.95139e-015
lhumerus -18.892 -5.05332 82.4766
lradius 31.9644
lwrist -26.6883
lhand -23.5518 -16.8348
lfingers 7.12502
lthumb 2.91019 13.1251
rfemur -11.6678 -15.727 18.9675
rtibia 32.704
rfoot -21.7262 3.4259
rtoes -14.7763
lfemur -12.6547 8.81612 -19.9667
ltibia 32.5536
lfoot -15.9803 -6.70223
ltoes -2.24049
2
root 0.288503 19.1197 3.22769 -178.317 -6.29074 179.412
lowerback -6.6036 3.21303 2.14282
upperback 5.11096 3.92486 0.473444
thorax 9.23737 1.97533 -0.132836
lowerneck -8.33646 -1.44751 -0.420526
upperneck 27.3896 -2.79169 -4.46993
head 9.99462 -2.53784 -1.928
rclavicle 4.47266e-015 -2.14687e-014
rhumerus -30.8066 -54.0581 -61.9594
rradius 11.3187
rwrist 49.6717
rhand -4.98965 13.0767
rfingers 7.12502
rthumb 20.8034 -15.8281
lclavicle 4.47266e-015 -2.14687e-014
lhumerus -18.7515 -7.06259 82.6383
lradius 33.3448
lwrist -27.0709
lhand -23.4853 -16.8588
lfingers 7.12502
lthumb 2.97447 13.1002
rfemur -11.5334 -15.8573 18.7915
rtibia 32.629
rfoot -21.8264 2.87789
rtoes -15.0638
lfemur -12.6671 8.67932 -20.1335
ltibia 32.4852
lfoot -15.8221 -7.30662
ltoes -2.12888
3
root 0.268998 19.1249 3.23648 -178.341 -6.97511 179.283
lowerback -6.38806 3.08968 1.94151
upperback 5.20769 3.78325 0.409675
thorax 9.20191 1.89415 -0.11887
lowerneck -8.23416 -1.57465 -0.596289
upperneck 27.0828 -2.90606 -4.45424
head 9.86431 -2.58658 -1.88951
rclavicle -3.57812e-015 7.15625e-015
rhumerus -33.0118 -54.8791 -60.197
rradius 11.5614
rwrist 46.9052
rhand -4.74176 13.3552
rfingers 7.12502
rthumb 21.0415 -15.5233
lclavicle -3.57812e-015 7.15625e-015
lhumerus -18.6811 -9.19705 82.6719
lradius 34.8049
lwrist -27.301
lhand -23.4497 -16.7691
lfingers 7.12502
lthumb 3.00877 13.1894
rfemur -11.4254 -15.8785 18.6159
rtibia 32.5989
rfoot -21.9932 2.21086
rtoes -15.4282
lfemur -12.6814 8.60773 -20.3144
ltibia 32.4094
lfoot -15.647 -7.93731
ltoes -1.87909
4
root 0.250736 19.1298 3.24642 -178.356 -7.65844 179.169
lowerback -6.17472 2.96143 1.72837
upperback 5.3082 3.63071 0.387113
thorax 9.16862 1.8047 -0.0553271
lowerneck -8.09793 -1.69835 -0.882759
upperneck 26.7318 -3.00444 -4.40189
head 9.716 -2.63327 -1.81557
rclavicle 2.95692e-014 -5.56597e-015
rhumerus -34.2661 -54.4155 -59.5869
rradius 11.9746
rwrist 43.1965
rhand -4.57483 13.3789
rfingers 7.12502
rthumb 21.2019 -15.4817
lclavicle 2.95692e-014 -5.56597e-015
lhumerus -18.6634 -11.2746 82.7244
lradius 36.3206
lwrist -27.1429
lhand -23.4171 -16.6765
lfingers 7.12502
lthumb 3.04031 13.2816
rfemur -11.3493 -15.9895 18.4621
rtibia 32.5848
rfoot -22.1335 1.6145
rtoes -15.8464
lfemur -12.7157 8.50762 -20.4743
ltibia 32.3425
lfoot -15.479 -8.57639
ltoes -1.29046
